<svg width="20" height="14" viewBox="0 0 20 14" fill="none" xmlns="http://www.w3.org/2000/svg">
<path d="M17.9187 3.83563C18.4733 4.37231 18.9747 4.96936 19.4092 5.61014C19.874 6.29571 19.874 7.11428 19.4092 7.79985C18.4153 9.26581 17.0781 10.4863 15.5423 11.3293C13.9431 12.2071 12.1313 12.6711 10.3026 12.6711C9.64739 12.6711 8.99003 12.6121 8.34878 12.4956C8.02926 12.4375 7.82445 12.1658 7.89136 11.8886C7.95826 11.6113 8.2715 11.4336 8.59101 11.4917C9.15276 11.5938 9.72863 11.6455 10.3026 11.6455C13.5134 11.6455 16.5369 10.0135 18.3902 7.27983C18.6416 6.90913 18.6416 6.50083 18.3902 6.13013C17.9955 5.54793 17.5407 5.00628 17.0384 4.52023C16.8205 4.30934 16.8409 3.98514 17.084 3.79608C17.3271 3.60704 17.7008 3.62476 17.9187 3.83563ZM1.19602 7.79985C0.731209 7.11428 0.731209 6.29571 1.19602 5.61014C2.18996 4.14418 3.5271 2.92369 5.06295 2.08066C6.66209 1.20289 8.47394 0.738888 10.3026 0.738888C11.9543 0.738888 13.5944 1.1184 15.0749 1.83941L17.0219 0.150214C17.2528 -0.0500712 17.627 -0.0500712 17.8579 0.150214C18.0887 0.350466 18.0887 0.675172 17.8579 0.875424L13.4997 4.65641C13.989 5.2297 14.2788 5.9385 14.2788 6.705C14.2788 8.60717 12.4951 10.1547 10.3026 10.1547C9.41912 10.1547 8.6021 9.9033 7.94134 9.47879L3.58325 13.2598C3.46785 13.3599 3.31657 13.41 3.16532 13.41C3.01408 13.41 2.8628 13.3599 2.74739 13.2598C2.51654 13.0595 2.51654 12.7348 2.74739 12.5346L4.51122 11.0043C3.20625 10.1847 2.06923 9.08777 1.19602 7.79985ZM7.95479 8.0167L11.8145 4.66808C11.3783 4.42353 10.8594 4.28091 10.3026 4.28091C8.76191 4.28091 7.50852 5.36835 7.50852 6.705C7.50852 7.1881 7.67292 7.63828 7.95479 8.0167ZM12.6504 5.39329L8.79069 8.74191C9.22687 8.98646 9.74577 9.12908 10.3026 9.12908C11.8433 9.12908 13.0967 8.04164 13.0967 6.705C13.0967 6.2219 12.9323 5.77171 12.6504 5.39329ZM2.21497 7.27986C3.04035 8.49724 4.12107 9.52331 5.3589 10.2689L7.10548 8.75358C6.61617 8.18029 6.32639 7.47149 6.32639 6.705C6.32639 4.80282 8.11013 3.25528 10.3026 3.25528C11.1861 3.25528 12.0031 3.50669 12.6639 3.9312L14.2032 2.59575C12.9733 2.04386 11.6645 1.76451 10.3026 1.76451C7.09181 1.76451 4.06838 3.39653 2.21501 6.13017C1.96362 6.50086 1.96362 6.90916 2.21497 7.27986Z" fill="#5F5F5F"/>
</svg>
